<svg version="1.1" viewBox="0.0 0.0 994.1758530183727 738.4330708661417" fill="none" stroke="none" stroke-linecap="square" stroke-miterlimit="10" xmlns:xlink="http://www.w3.org/1999/xlink" xmlns="http://www.w3.org/2000/svg"><clipPath id="p.0"><path d="m0 0l994.17584 0l0 738.43304l-994.17584 0l0 -738.43304z" clip-rule="nonzero"/></clipPath><g clip-path="url(#p.0)"><path fill="#000000" fill-opacity="0.0" d="m0 0l994.17584 0l0 738.43304l-994.17584 0z" fill-rule="evenodd"/><path fill="#000000" fill-opacity="0.0" d="m82.68767 370.87927l0 0c0 -192.81262 156.3055 -349.1181 349.1181 -349.1181l0 0c92.59186 0 181.39142 36.781982 246.86377 102.254326c65.47235 65.47234 102.25433 154.27191 102.25433 246.8638l0 0c0 192.81262 -156.30548 349.1181 -349.1181 349.1181l0 0c-192.81262 0 -349.1181 -156.30548 -349.1181 -349.1181z" fill-rule="evenodd"/><path stroke="#ff0000" stroke-width="16.0" stroke-linejoin="round" stroke-linecap="butt" d="m82.68767 370.87927l0 0c0 -192.81262 156.3055 -349.1181 349.1181 -349.1181l0 0c92.59186 0 181.39142 36.781982 246.86377 102.254326c65.47235 65.47234 102.25433 154.27191 102.25433 246.8638l0 0c0 192.81262 -156.30548 349.1181 -349.1181 349.1181l0 0c-192.81262 0 -349.1181 -156.30548 -349.1181 -349.1181z" fill-rule="evenodd"/><path fill="#000000" fill-opacity="0.0" d="m161.34386 369.84778l0 0c0 -165.38103 133.0243 -299.44882 297.1181 -299.44882l0 0c78.80063 0 154.37381 31.54898 210.09427 87.706535c55.72046 56.157547 87.023865 132.32353 87.023865 211.7423l0 0c0 165.38098 -133.02429 299.4488 -297.11813 299.4488l0 0c-164.09378 0 -297.1181 -134.06781 -297.1181 -299.4488z" fill-rule="evenodd"/><path stroke="#ff0000" stroke-width="12.0" stroke-linejoin="round" stroke-linecap="butt" d="m161.34386 369.84778l0 0c0 -165.38103 133.0243 -299.44882 297.1181 -299.44882l0 0c78.80063 0 154.37381 31.54898 210.09427 87.706535c55.72046 56.157547 87.023865 132.32353 87.023865 211.7423l0 0c0 165.38098 -133.02429 299.4488 -297.11813 299.4488l0 0c-164.09378 0 -297.1181 -134.06781 -297.1181 -299.4488z" fill-rule="evenodd"/><path fill="#000000" fill-opacity="0.0" d="m207.9103 372.71988l0 0c0 -145.60313 117.11104 -263.6378 261.57483 -263.6378l0 0c69.37396 0 135.9065 27.776047 184.9613 77.21773c49.05481 49.441666 76.613464 116.49898 76.613464 186.42006l0 0c0 145.60312 -117.11102 263.6378 -261.57477 263.6378l0 0c-144.46378 0 -261.57483 -118.03467 -261.57483 -263.6378z" fill-rule="evenodd"/><path stroke="#0000ff" stroke-width="8.0" stroke-linejoin="round" stroke-linecap="butt" d="m207.9103 372.71988l0 0c0 -145.60313 117.11104 -263.6378 261.57483 -263.6378l0 0c69.37396 0 135.9065 27.776047 184.9613 77.21773c49.05481 49.441666 76.613464 116.49898 76.613464 186.42006l0 0c0 145.60312 -117.11102 263.6378 -261.57477 263.6378l0 0c-144.46378 0 -261.57483 -118.03467 -261.57483 -263.6378z" fill-rule="evenodd"/><path fill="#000000" fill-opacity="0.0" d="m268.35147 370.23953l0 0c0 -124.19014 99.89337 -224.86613 223.1181 -224.86613l0 0c59.17459 0 115.92557 23.691177 157.76834 65.86177c41.842773 42.170578 65.34979 99.36615 65.34979 159.00436l0 0c0 124.190155 -99.89337 224.86612 -223.11813 224.86612l0 0c-123.22473 0 -223.1181 -100.675964 -223.1181 -224.86612z" fill-rule="evenodd"/><path stroke="#0000ff" stroke-width="4.0" stroke-linejoin="round" stroke-linecap="butt" d="m268.35147 370.23953l0 0c0 -124.19014 99.89337 -224.86613 223.1181 -224.86613l0 0c59.17459 0 115.92557 23.691177 157.76834 65.86177c41.842773 42.170578 65.34979 99.36615 65.34979 159.00436l0 0c0 124.190155 -99.89337 224.86612 -223.11813 224.86612l0 0c-123.22473 0 -223.1181 -100.675964 -223.1181 -224.86612z" fill-rule="evenodd"/><path fill="#000000" fill-opacity="0.0" d="m270.6824 145.3727l441.5748 0l0 449.7323l-441.5748 0z" fill-rule="evenodd"/><path fill="#ff0000" d="m396.251 425.59512q-4.90625 4.75 -11.578125 6.96875q-6.671875 2.234375 -14.03125 2.234375q-1.828125 0 -4.140625 -0.15625q-2.296875 -0.15625 -5.4375 -0.625q-3.140625 -0.453125 -6.75 -1.296875q-3.59375 -0.84375 -6.046875 -1.921875q-1.078125 -0.609375 -1.15625 -1.140625q-0.078125 -0.53125 -0.078125 -1.453125l0 -12.578125q0 -2.609375 3.21875 -1.234375q2.921875 1.234375 5.671875 2.078125q2.765625 0.84375 5.140625 1.3125q2.375 0.453125 4.90625 0.765625q2.53125 0.296875 4.984375 0.296875q8.890625 0 13.71875 -5.28125q4.828125 -5.296875 4.828125 -13.578125q0 -7.96875 -4.75 -13.328125q-4.75 -5.375 -12.71875 -5.6875q-3.53125 0 -8.4375 1.0q-4.90625 1.0 -9.8125 2.6875q-5.984375 2.296875 -5.984375 -2.453125l0.765625 -53.203125q0.15625 -1.546875 0.609375 -1.921875q0.46875 -0.390625 2.765625 -0.390625l48.609375 0q0.921875 0 1.296875 0.546875q0.390625 0.53125 0.390625 1.296875l0 12.265625q0 0.609375 -0.390625 1.234375q-0.375 0.609375 -1.296875 0.609375l-35.109375 0l-0.625 24.84375q5.21875 -1.390625 11.203125 -1.390625q5.203125 0 11.03125 2.234375q5.828125 2.21875 10.265625 6.359375q4.453125 4.140625 6.984375 10.046875q2.53125 5.890625 2.53125 13.25q0 17.796875 -10.578125 27.609375zm51.210968 5.984375q-0.609375 1.21875 -1.234375 1.671875q-0.609375 0.46875 -2.140625 0.46875l-12.109375 0q-2.296875 0 -2.921875 -0.546875q-0.609375 -0.53125 0.015625 -2.21875l34.34375 -88.46875l-37.875 0q-1.078125 0 -1.84375 -0.6875q-0.765625 -0.6875 -0.765625 -1.921875l0 -10.734375q0 -2.453125 2.609375 -2.453125l53.8125 0q2.609375 0 3.140625 0.546875q0.546875 0.53125 0.546875 2.21875l0 9.359375q0 1.21875 -0.765625 2.453125l-34.8125 90.3125zm82.49225 2.90625q-16.718811 0 -24.68753 -15.5625q-7.96875 -15.5625 -7.96875 -39.015625q0 -4.90625 1.140625 -15.328125q1.15625 -10.4375 4.828125 -19.171875q3.6875 -8.75 10.0468445 -14.421875q6.375 -5.671875 16.640686 -5.671875q6.59375 0 11.71875 2.609375q5.140625 2.609375 8.75 7.140625q3.609375 4.515625 5.90625 10.421875q2.296875 5.890625 3.671875 12.484375q1.390625 6.59375 1.84375 13.421875q0.46875 6.828125 0.46875 8.515625q0 9.34375 -2.0 20.390625q-2.0 11.03125 -5.984375 18.625q-3.984375 7.59375 -9.96875 11.578125q-5.96875 3.984375 -14.40625 3.984375zm4.453125 -40.171875l-9.359436 0q-2.0 0 -2.0 -2.0l0 -26.984375q0 -1.984375 2.0 -1.984375l9.359436 0q1.984375 0 1.984375 1.984375l0 26.984375q0 2.0 -1.984375 2.0zm-4.609375 -52.75q-3.671936 0 -6.828186 2.3125q-3.140625 2.296875 -5.4375 7.359375q-2.296875 5.046875 -3.453125 13.25q-1.140625 8.203125 -1.140625 15.421875q0 7.359375 1.140625 15.5625q1.15625 8.203125 3.453125 13.265625q2.296875 5.046875 5.4375 7.359375q3.15625 2.296875 6.828186 2.296875q3.53125 0 6.671875 -2.296875q3.140625 -2.3125 5.4375 -7.359375q2.3125 -5.0625 3.453125 -13.265625q1.15625 -8.203125 1.15625 -15.5625q0 -7.21875 -1.15625 -15.421875q-1.140625 -8.203125 -3.453125 -13.25q-2.296875 -5.0625 -5.4375 -7.359375q-3.140625 -2.3125 -6.671875 -2.3125zm97.52344 84.484375q-5.21875 4.75 -12.8125 6.8125q-7.578125 2.078125 -14.171875 2.078125q-4.453125 0 -10.96875 -1.15625q-6.515625 -1.140625 -11.578125 -3.125q-1.53125 -0.46875 -2.078125 -1.078125q-0.53125 -0.609375 -0.375 -1.84375l1.234375 -11.953125q0.15625 -1.234375 0.921875 -1.6875q0.765625 -0.46875 2.59375 0.296875q4.296875 1.6875 7.671875 2.390625q3.375 0.6875 7.828125 1.296875q5.8125 0.609375 8.65625 0.15625q2.84375 -0.46875 5.4375 -1.375q2.609375 -0.921875 4.765625 -2.609375q6.578125 -4.765625 6.578125 -12.578125q0 -3.21875 -1.15625 -5.90625q-1.140625 -2.6875 -4.125 -5.28125q-2.984375 -2.609375 -7.28125 -3.75q-4.296875 -1.15625 -10.28125 -1.15625l-6.125 0q-1.234375 0 -1.546875 -0.3125q-0.296875 -0.3125 -0.296875 -1.53125l0 -11.046875q0 -1.828125 0.296875 -2.140625q0.3125 -0.3125 1.546875 -0.3125l5.828125 0q4.4375 0 7.734375 -0.90625q3.296875 -0.921875 6.96875 -2.984375q3.6875 -2.078125 5.609375 -5.375q1.921875 -3.296875 1.921875 -7.28125q0 -2.921875 -1.765625 -5.59375q-1.765625 -2.6875 -4.453125 -4.296875q-2.6875 -1.609375 -5.984375 -2.21875q-3.296875 -0.625 -6.046875 -0.625q-2.765625 0 -6.140625 0.6875q-3.375 0.6875 -6.21875 1.921875q-2.828125 1.21875 -5.421875 2.453125q-1.6875 0.765625 -2.390625 0.390625q-0.6875 -0.390625 -0.984375 -1.625l-1.234375 -11.5q-0.296875 -0.90625 0.078125 -1.59375q0.390625 -0.703125 2.078125 -1.3125q6.125 -2.609375 11.640625 -3.90625q5.53125 -1.3125 9.96875 -1.3125q6.296875 0 12.421875 1.546875q6.140625 1.53125 10.8125 4.828125q4.671875 3.296875 7.578125 8.515625q2.921875 5.203125 2.921875 12.40625q0 3.53125 -0.6875 6.984375q-0.6875 3.4375 -3.21875 7.359375q-2.53125 3.90625 -5.984375 6.515625q-3.453125 2.59375 -7.4375 4.28125q9.046875 2.765625 13.953125 8.984375q4.90625 6.203125 4.90625 15.40625q0 6.4375 -2.84375 13.03125q-2.828125 6.59375 -8.34375 11.03125z" fill-rule="nonzero"/></g></svg>